# xmcd CD database file
#
# Track frame offsets:
#	150
#	21134
#	44454
#	81573
#	99545
#	131502
#	150417
#	177288
#	200654
#	233025
#	262319
#	284205
#	306499
#	329158
#
# Disc length: 4747 seconds
#
# Revision: 0
# Processed by: cddbd v1.5.1PL2 Copyright (c) Steve Scherf et al.
# Submitted via: CDex 1.51
#
DISCID=d912890e
DTITLE=MEDITATION - MEDITATION MOODS CD1
DYEAR=1900
DGENRE=New Age
TTITLE0=LI FU CHAN
TTITLE1=WEI LI YANG
TTITLE2=RAVI CHAWLA
TTITLE3=MICHIKO TANAKA
TTITLE4=WEI LI YANG 2
TTITLE5=RAVI CHAWLA 2
TTITLE6=LEVANTIS
TTITLE7=WEI LI YANG 2
TTITLE8=RAVI CHAWLA 2
TTITLE9=MICHIKA TANAKA 2
TTITLE10=WEI LI YANG 3
TTITLE11=LEVANTIS 2
TTITLE12=WEI LI YANG 4
TTITLE13=RAVI CHAWLA 3
EXTD=
EXTT0=
EXTT1=
EXTT2=
EXTT3=
EXTT4=
EXTT5=
EXTT6=
EXTT7=
EXTT8=
EXTT9=
EXTT10=
EXTT11=
EXTT12=
EXTT13=
PLAYORDER=
